:FULLY-SPECIFIED
:FORCE-ALL-JOINTS-BE-3DOF
:DEGREES
275
root 9.96874 16.8914 1.72699 5.95159 -4.08789 1.77926
lfemur -17.4338 6.62085 -28.3401
ltibia 29.2628 0 0
lfoot -17.0739 6.94348 0
ltoes -4.31258 0 0
rfemur -25.8413 -1.60889 17.8922
rtibia 64.4139 0 0
rfoot -18.2179 -12.0242 0
rtoes -19.1287 0 0
lowerback -5.22903 -1.42455 -2.66324
upperback -0.332284 -1.79953 2.08997
thorax 2.74125 -0.942906 3.51594
lowerneck -21.9107 -3.74964 -11.5601
upperneck 21.1422 -4.43442 11.9154
head 10.9962 -1.51777 5.61941
lclavicle 1.38451e-14 -1.20864e-14 0
lhumerus -21.2096 -13.9305 87.0825
lradius 23.8727 0 0
lwrist 0.242143 0 0
lhand -12.339 -24.4725 0
lfingers 7.12502 0 0
lthumb 13.7302 5.05463 0
rclavicle 1.38451e-14 -1.20864e-14 0
rhumerus -45.5501 8.51333 -83.2727
rradius 42.7593 0 0
rwrist -24.2628 0 0
rhand -30.5415 -22.7127 0
rfingers 7.12502 0 0
rthumb -3.84034 -52.658 0
276
root 9.97982 16.8984 1.85575 5.90882 -3.80163 1.85343
lfemur -16.512 6.50728 -28.4065
ltibia 28.5727 0 0
lfoot -17.2158 6.83272 0
ltoes -4.3261 0 0
rfemur -26.7375 -1.4856 17.7826
rtibia 63.7134 0 0
rfoot -18.8791 -12.1437 0
rtoes -19.1863 0 0
lowerback -5.26784 -1.56377 -2.73463
upperback -0.289233 -1.9796 2.10622
thorax 2.82709 -1.03602 3.55537
lowerneck -21.9395 -3.73337 -11.5293
upperneck 21.256 -4.41489 11.8638
head 11.0378 -1.51176 5.60213
lclavicle 1.48951e-14 -1.13421e-14 0
lhumerus -20.4632 -14.4228 87.007
lradius 24.0691 0 0
lwrist 0.690859 0 0
lhand -12.5404 -24.4288 0
lfingers 7.12502 0 0
lthumb 13.5361 5.1115 0
rclavicle 1.48951e-14 -1.13421e-14 0
rhumerus -45.6232 8.4925 -83.221
rradius 42.7471 0 0
rwrist -24.2835 0 0
rhand -30.5383 -22.8721 0
rfingers 7.12502 0 0
rthumb -3.83724 -52.8176 0
277
root 9.99021 16.9047 1.98404 5.87624 -3.49417 1.92955
lfemur -15.5835 6.3902 -28.4741
ltibia 27.8422 0 0
lfoot -17.3422 6.70704 0
ltoes -4.29574 0 0
rfemur -27.6049 -1.33832 17.6484
rtibia 62.7976 0 0
rfoot -19.4469 -12.2038 0
rtoes -19.2618 0 0
lowerback -5.31513 -1.70406 -2.8137
upperback -0.250543 -2.16042 2.12015
thorax 2.91411 -1.12963 3.5959
lowerneck -21.969 -3.72537 -11.5029
upperneck 21.3726 -4.40626 11.8148
head 11.0825 -1.51082 5.58496
lclavicle 1.59623e-14 -1.05014e-14 0
lhumerus -19.7146 -14.9395 86.9236
lradius 24.2678 0 0
lwrist 1.19009 0 0
lhand -12.7596 -24.3639 0
lfingers 7.12502 0 0
lthumb 13.3249 5.19039 0
rclavicle 1.59623e-14 -1.05014e-14 0
rhumerus -45.7085 8.47416 -83.1855
rradius 42.7162 0 0
rwrist -24.2951 0 0
rhand -30.5523 -23.1071 0
rfingers 7.12502 0 0
rthumb -3.85078 -53.0525 0
278
root 9.99991 16.9102 2.112 5.85321 -3.1677 2.00748
lfemur -14.6492 6.27023 -28.5422
ltibia 27.0756 0 0
lfoot -17.4535 6.5675 0
ltoes -4.22604 0 0
rfemur -28.4441 -1.16935 17.4917
rtibia 61.6888 0 0
rfoot -19.9286 -12.2103 0
rtoes -19.3529 0 0
lowerback -5.37017 -1.84501 -2.89982
upperback -0.216078 -2.34148 2.13189
thorax 3.00194 -1.22346 3.63741
lowerneck -21.9985 -3.72502 -11.4809
upperneck 21.4911 -4.40771 11.7686
head 11.1299 -1.51457 5.56804
lclavicle 1.70377e-14 -9.57659e-15 0
lhumerus -18.9675 -15.4787 86.8346
lradius 24.4696 0 0
lwrist 1.73364 0 0
lhand -12.9929 -24.2803 0
lfingers 7.12502 0 0
lthumb 13.1 5.28877 0
rclavicle 1.70377e-14 -9.57659e-15 0
rhumerus -45.805 8.45765 -83.1647
rradius 42.667 0 0
rwrist -24.2976 0 0
rhand -30.5814 -23.4086 0
rfingers 7.12502 0 0
rthumb -3.87884 -53.3536 0
279
root 10.0089 16.9151 2.23977 5.83913 -2.82437 2.08704
lfemur -13.7101 6.14799 -28.61
ltibia 26.2771 0 0
lfoot -17.5501 6.41514 0
ltoes -4.12157 0 0
rfemur -29.2555 -0.980975 17.3144
rtibia 60.4091 0 0
rfoot -20.3312 -12.1689 0
rtoes -19.4571 0 0
lowerback -5.43226 -1.98622 -2.99239
upperback -0.185697 -2.52229 2.14154
thorax 3.09022 -1.31724 3.67979
lowerneck -22.0272 -3.73166 -11.4631
upperneck 21.6105 -4.41844 11.7253
head 11.1793 -1.52262 5.5515
lclavicle 1.8112e-14 -8.57994e-15 0
lhumerus -18.2256 -16.0383 86.7422
lradius 24.6755 0 0
lwrist 2.31529 0 0
lhand -13.2365 -24.1802 0
lfingers 7.12502 0 0
lthumb 12.8652 5.4041 0
rclavicle 1.8112e-14 -8.57994e-15 0
rhumerus -45.9113 8.44232 -83.157
rradius 42.6002 0 0
rwrist -24.2909 0 0
rhand -30.6233 -23.7676 0
rfingers 7.12502 0 0
rthumb -3.91934 -53.7121 0
280
root 10.0172 16.9192 2.36749 5.83337 -2.46635 2.16809
lfemur -12.7672 6.0241 -28.6768
ltibia 25.4509 0 0
lfoot -17.6323 6.25101 0
ltoes -3.98689 0 0
rfemur -30.0398 -0.775497 17.1184
rtibia 58.9806 0 0
rfoot -20.6617 -12.0851 0
rtoes -19.5722 0 0
lowerback -5.50068 -2.12727 -3.09081
upperback -0.159262 -2.70234 2.14924
thorax 3.17859 -1.4107 3.72292
lowerneck -22.0545 -3.74464 -11.4494
upperneck 21.7301 -4.43763 11.6851
head 11.23 -1.5346 5.53547
lclavicle 1.91761e-14 -7.52366e-15 0
lhumerus -17.4925 -16.6166 86.6487
lradius 24.8866 0 0
lwrist 2.92884 0 0
lhand -13.4869 -24.066 0
lfingers 7.12502 0 0
lthumb 12.6239 5.53384 0
rclavicle 1.91761e-14 -7.52366e-15 0
rhumerus -46.0266 8.42752 -83.1608
rradius 42.5162 0 0
rwrist -24.2749 0 0
rhand -30.6759 -24.1753 0
rfingers 7.12502 0 0
rthumb -3.97016 -54.1189 0
281
root 10.0249 16.9226 2.49531 5.83533 -2.0958 2.25047
lfemur -11.8213 5.8992 -28.7417
ltibia 24.6013 0 0
lfoot -17.7003 6.07615 0
ltoes -3.82657 0 0
rfemur -30.7974 -0.555207 16.9057
rtibia 57.4254 0 0
rfoot -20.9273 -11.9646 0
rtoes -19.6957 0 0
lowerback -5.57471 -2.26778 -3.19446
upperback -0.136634 -2.88114 2.1551
thorax 3.26668 -1.50357 3.76669
lowerneck -22.0796 -3.76333 -11.4398
upperneck 21.8488 -4.46447 11.6481
head 11.2815 -1.55012 5.52007
lclavicle 2.02208e-14 -6.41999e-15 0
lhumerus -16.772 -17.2114 86.5562
lradius 25.1037 0 0
lwrist 3.56808 0 0
lhand -13.7401 -23.94 0
lfingers 7.12502 0 0
lthumb 12.3798 5.67546 0
rclavicle 2.02208e-14 -6.41999e-15 0
rhumerus -46.1496 8.41259 -83.1745
rradius 42.4156 0 0
rwrist -24.2495 0 0
rhand -30.7371 -24.6225 0
rfingers 7.12502 0 0
rthumb -4.02921 -54.5651 0
282
root 10.0319 16.9253 2.62336 5.84438 -1.7149 2.33402
lfemur -10.8734 5.77389 -28.804
ltibia 23.7325 0 0
lfoot -17.7546 5.89162 0
ltoes -3.64517 0 0
rfemur -31.5288 -0.322398 16.6784
rtibia 55.7657 0 0
rfoot -21.135 -11.8132 0
rtoes -19.8253 0 0
lowerback -5.65363 -2.40734 -3.30274
upperback -0.117674 -3.05818 2.15924
thorax 3.35413 -1.59559 3.81097
lowerneck -22.1018 -3.78707 -11.434
upperneck 21.9658 -4.49815 11.6144
head 11.3332 -1.5688 5.50544
lclavicle 2.1237e-14 -5.28116e-15 0
lhumerus -16.0677 -17.8209 86.4672
lradius 25.3279 0 0
lwrist 4.22681 0 0
lhand -13.9927 -23.8044 0
lfingers 7.12502 0 0
lthumb 12.1364 5.82642 0
rclavicle 2.1237e-14 -5.28116e-15 0
rhumerus -46.2793 8.39687 -83.1966
rradius 42.299 0 0
rwrist -24.2147 0 0
rhand -30.8046 -25.1004 0
rfingers 7.12502 0 0
rthumb -4.0944 -55.0418 0
283
root 10.0382 16.9271 2.7518 5.85991 -1.3258 2.41859
lfemur -9.92451 5.64881 -28.8629
ltibia 22.8488 0 0
lfoot -17.7954 5.69844 0
ltoes -3.44725 0 0
rfemur -32.2346 -0.0793629 16.4382
rtibia 54.0235 0 0
rfoot -21.292 -11.6364 0
rtoes -19.9585 0 0
lowerback -5.73674 -2.54554 -3.41504
upperback -0.102243 -3.23297 2.16177
thorax 3.44058 -1.68648 3.85564
lowerneck -22.1205 -3.81523 -11.4321
upperneck 22.0802 -4.53785 11.5842
head 11.3844 -1.59026 5.4917
lclavicle 2.22155e-14 -4.11941e-15 0
lhumerus -15.3834 -18.4432 86.3837
lradius 25.5601 0 0
lwrist 4.89881 0 0
lhand -14.2408 -23.6616 0
lfingers 7.12502 0 0
lthumb 11.8972 5.98419 0
rclavicle 2.22155e-14 -4.11941e-15 0
rhumerus -46.4145 8.37971 -83.2253
rradius 42.167 0 0
rwrist -24.1704 0 0
rhand -30.8762 -25.5998 0
rfingers 7.12502 0 0
rthumb -4.16361 -55.54 0
